<svg xmlns="http://www.w3.org/2000/svg" version="1.1" xmlns:xlink="http://www.w3.org/1999/xlink" xmlns:svgjs="http://svgjs.dev/svgjs" width="2000" height="1500" viewBox="0 0 2000 1500"><rect width="2000" height="1500" fill="#1a1a1a"></rect><g transform="matrix(0.75,0,0,0.75,249.090909090909,462.593063104851)"><svg viewBox="0 0 396 152" data-background-color="#1a1a1a" preserveAspectRatio="xMidYMid meet" height="767" width="2000" xmlns="http://www.w3.org/2000/svg" xmlns:xlink="http://www.w3.org/1999/xlink"><g id="tight-bounds" transform="matrix(1,0,0,1,0.2400000000000091,-0.057619455779828854)"><svg viewBox="0 0 395.52 152.11522959002397" height="152.11522959002397" width="395.52"><g><svg viewBox="0 0 782.8872108735051 301.09493281026687" height="152.11522959002397" width="395.52"><g transform="matrix(1,0,0,1,387.3672108735051,0)"><svg viewBox="0 0 395.52 301.09493281026687" height="301.09493281026687" width="395.52"><g id="textblocktransform"><svg viewBox="0 0 395.52 301.09493281026687" height="301.09493281026687" width="395.52" id="textblock"><g><svg viewBox="0 0 395.52 191.0496095141849" height="191.0496095141849" width="395.52"><g transform="matrix(1,0,0,1,0,0)"><svg width="395.52" viewBox="46.33 -32.75 154.5061193506005 70.30000000000001" height="191.0496095141849" data-palette-color="#ffffff"><g transform="matrix(1,0,0,1,0,0)"><g><svg width="4.422374594125329" viewBox="3.16 -36.36 28.68 36.36" height="5.6080638815905095" data-palette-color="#ffffff" id="scriptelement" x="193.14461205353786" y="25.66564805920475"><path d="M10.85 0L3.16 0 3.16-36.36 17.51-36.36Q21.63-36.36 24.55-34.9 27.47-33.43 29-30.76 30.54-28.09 30.54-24.49L30.54-24.49Q30.54-20.86 28.98-18.26 27.41-15.66 24.46-14.28 21.5-12.89 17.31-12.89L17.31-12.89 7.71-12.89 7.71-19.07 16.07-19.07Q18.27-19.07 19.73-19.67 21.18-20.28 21.9-21.48 22.62-22.69 22.62-24.49L22.62-24.49Q22.62-26.3 21.9-27.54 21.18-28.78 19.72-29.43 18.25-30.08 16.03-30.08L16.03-30.08 10.85-30.08 10.85 0ZM14.51-16.55L22.8-16.55 31.84 0 23.35 0 14.51-16.55Z" opacity="1" transform="matrix(1,0,0,1,0,0)" fill="#ffffff" class="undefined-123" data-fill-palette-color="primary" id="yy-123"></path></svg></g></g><path d="M189.875 28.47C189.875 25.443 192.329 22.989 195.356 22.989 198.382 22.989 200.836 25.443 200.836 28.47 200.836 31.496 198.382 33.95 195.356 33.95 192.329 33.95 189.875 31.496 189.875 28.47ZM195.356 33.397C198.077 33.397 200.283 31.191 200.283 28.47 200.283 25.748 198.077 23.542 195.356 23.542 192.634 23.542 190.428 25.748 190.428 28.47 190.428 31.191 192.634 33.397 195.356 33.397Z" fill="#ffffff" id="scriptcircle" data-fill-palette-color="primary"></path><svg></svg><svg></svg><g class="wordmark-text-0" data-fill-palette-color="primary" id="text-0"><path transform="translate(41.73,0)" d="M9.6 0h-5v-32.75h10.55c1.7 0 3.267 0.16 4.7 0.48 1.433 0.313 2.677 0.843 3.73 1.59 1.047 0.753 1.863 1.73 2.45 2.93 0.58 1.2 0.87 2.683 0.87 4.45v0c0 2.533-0.623 4.567-1.87 6.1-1.253 1.533-2.93 2.617-5.03 3.25v0l8.05 13.95h-5.65l-7.45-13.3h-5.35zM9.6-28.75v11.4h4.95c2.4 0 4.233-0.49 5.5-1.47 1.267-0.987 1.9-2.48 1.9-4.48v0c0-2-0.633-3.41-1.9-4.23-1.267-0.813-3.1-1.22-5.5-1.22v0zM38.8 0h-5.05v-32.75h5.05v13.45h12.4v-13.45h5.05v32.75h-5.05v-14.95h-12.4zM77.5 0h-5v-11.5l-10.85-21.25h5.3l4.5 9.25c0.6 1.267 1.183 2.523 1.75 3.77 0.567 1.253 1.167 2.53 1.8 3.83v0h0.2c0.633-1.3 1.25-2.577 1.85-3.83 0.6-1.247 1.2-2.503 1.8-3.77v0l4.35-9.25h5.15l-10.85 21.25zM97.9 0h-4.5v-32.75h5.8l4.25 13.35 1.45 5.1h0.2l1.45-5.1 4.25-13.35h5.8v32.75h-4.6v-14.75c0-0.833 0.033-1.817 0.1-2.95 0.067-1.133 0.143-2.283 0.23-3.45 0.08-1.167 0.163-2.293 0.25-3.38 0.08-1.08 0.153-2.003 0.22-2.77v0h-0.15l-2.05 7.05-4.15 11.55h-3.1l-4.1-11.55-2-7.05h-0.15c0.1 0.767 0.193 1.69 0.28 2.77 0.08 1.087 0.163 2.213 0.25 3.38 0.08 1.167 0.147 2.317 0.2 3.45 0.047 1.133 0.07 2.117 0.07 2.95v0zM146.55 0h-21.1v-32.75h20.6v4.2h-15.6v9.35h13.2v4.2h-13.2v10.8h16.1z" fill="#ffffff" fill-rule="nonzero" stroke="none" stroke-width="1" stroke-linecap="butt" stroke-linejoin="miter" stroke-miterlimit="10" stroke-dasharray="" stroke-dashoffset="0" font-family="none" font-weight="none" font-size="none" text-anchor="none" style="mix-blend-mode: normal" data-fill-palette-color="primary" opacity="1"></path><path transform="translate(56.35,36.95)" d="M7.9 0h-4.5v-32.75h5.8l4.25 13.35 1.45 5.1h0.2l1.45-5.1 4.25-13.35h5.8v32.75h-4.6v-14.75c0-0.833 0.033-1.817 0.1-2.95 0.067-1.133 0.143-2.283 0.23-3.45 0.08-1.167 0.163-2.293 0.25-3.38 0.08-1.08 0.153-2.003 0.22-2.77v0h-0.15l-2.05 7.05-4.15 11.55h-3.1l-4.1-11.55-2-7.05h-0.15c0.1 0.767 0.193 1.69 0.28 2.77 0.08 1.087 0.163 2.213 0.25 3.38 0.08 1.167 0.147 2.317 0.2 3.45 0.047 1.133 0.07 2.117 0.07 2.95v0zM45 0.6v0c-1.867 0-3.583-0.383-5.15-1.15-1.567-0.767-2.917-1.877-4.05-3.33-1.133-1.447-2.01-3.237-2.63-5.37-0.613-2.133-0.92-4.55-0.92-7.25v0c0-2.667 0.307-5.05 0.92-7.15 0.62-2.1 1.497-3.867 2.63-5.3 1.133-1.433 2.483-2.527 4.05-3.28 1.567-0.747 3.283-1.12 5.15-1.12v0c1.867 0 3.583 0.373 5.15 1.12 1.567 0.753 2.907 1.847 4.02 3.28 1.12 1.433 1.997 3.2 2.63 5.3 0.633 2.1 0.95 4.483 0.95 7.15v0c0 2.7-0.317 5.117-0.95 7.25-0.633 2.133-1.51 3.923-2.63 5.37-1.113 1.453-2.453 2.563-4.02 3.33-1.567 0.767-3.283 1.15-5.15 1.15zM45-3.75v0c2.3 0 4.143-1.117 5.53-3.35 1.38-2.233 2.07-5.367 2.07-9.4v0c0-3.967-0.69-7.043-2.07-9.23-1.387-2.18-3.23-3.27-5.53-3.27v0c-2.3 0-4.14 1.09-5.52 3.27-1.387 2.187-2.08 5.263-2.08 9.23v0c0 4.033 0.693 7.167 2.08 9.4 1.38 2.233 3.22 3.35 5.52 3.35zM75 0.6v0c-1.867 0-3.583-0.383-5.15-1.15-1.567-0.767-2.917-1.877-4.05-3.33-1.133-1.447-2.01-3.237-2.63-5.37-0.613-2.133-0.92-4.55-0.92-7.25v0c0-2.667 0.307-5.05 0.92-7.15 0.62-2.1 1.497-3.867 2.63-5.3 1.133-1.433 2.483-2.527 4.05-3.28 1.567-0.747 3.283-1.12 5.15-1.12v0c1.867 0 3.583 0.373 5.15 1.12 1.567 0.753 2.907 1.847 4.02 3.28 1.12 1.433 1.997 3.2 2.63 5.3 0.633 2.1 0.95 4.483 0.95 7.15v0c0 2.7-0.317 5.117-0.95 7.25-0.633 2.133-1.51 3.923-2.63 5.37-1.113 1.453-2.453 2.563-4.02 3.33-1.567 0.767-3.283 1.15-5.15 1.15zM75-3.75v0c2.3 0 4.143-1.117 5.53-3.35 1.38-2.233 2.07-5.367 2.07-9.4v0c0-3.967-0.69-7.043-2.07-9.23-1.387-2.18-3.23-3.27-5.53-3.27v0c-2.3 0-4.143 1.09-5.53 3.27-1.38 2.187-2.07 5.263-2.07 9.23v0c0 4.033 0.69 7.167 2.07 9.4 1.387 2.233 3.23 3.35 5.53 3.35zM98.7 0h-4.8v-32.75h5.35l9.55 19.45 3.05 6.9h0.15c-0.1-1.667-0.24-3.427-0.42-5.28-0.187-1.847-0.28-3.67-0.28-5.47v0-15.6h4.8v32.75h-5.35l-9.55-19.45-3.05-6.9h-0.15c0.1 1.7 0.24 3.457 0.42 5.27 0.187 1.82 0.28 3.613 0.28 5.38v0z" fill="#ffffff" fill-rule="nonzero" stroke="none" stroke-width="1" stroke-linecap="butt" stroke-linejoin="miter" stroke-miterlimit="10" stroke-dasharray="" stroke-dashoffset="0" font-family="none" font-weight="none" font-size="none" text-anchor="none" style="mix-blend-mode: normal" data-fill-palette-color="primary" opacity="1"></path></g></svg></g></svg></g><g transform="matrix(1,0,0,1,0,232.48995126119496)"><svg viewBox="0 0 395.52 68.6049815490719" height="68.6049815490719" width="395.52"><path d="M395.52 0l-11.434 34.302 11.434 34.303h-395.52l11.434-34.303-11.434-34.302z" data-fill-palette-color="tertiary" opacity="1" fill="#ff002f"></path><g transform="matrix(1,0,0,1,75.54432000000001,20.72017087350502)"><svg width="244.43135999999996" viewBox="2.2 -41.45 484.97 53.900000000000006" height="27.164639802061856" data-palette-color="#ffffff"><path d="M50.45-38.5Q51.85-38.5 53.08-37.9 54.3-37.3 55.1-36.4L55.1-36.4Q54.1-36.3 53.8-36.2L53.8-36.2Q49.5-34.65 44.23-24.13 38.95-13.6 34.65-0.75L34.65-0.75Q34.65-0.7 34.55-0.43 34.45-0.15 34.27 0.03 34.1 0.2 33.75 0.3L33.75 0.3Q32.9 0.3 31.45 0.85L31.45 0.85Q30.5 1.2 30.05 1.2L30.05 1.2Q29.2 1.2 29.2 0.2L29.2 0.2Q29.15-1.9 29.15-1.75L29.15-1.75Q28.95-7 28.25-11.65 27.55-16.3 26.3-22.55L26.3-22.55 25.85-25Q23.2-20.6 18.95-12.05 14.7-3.5 13.7-0.7L13.7-0.7Q13.65-0.5 13.55-0.2 13.45 0.1 13.33 0.18 13.2 0.25 13.05 0.25L13.05 0.25Q11.55 0.4 10.7 0.63 9.85 0.85 8.7 1.45L8.7 1.45Q8.4 1.45 8.33 1.28 8.25 1.1 8.3 0.75L8.3 0.75Q8.95-4.2 8.95-11.65L8.95-11.65Q8.95-17.55 8.65-23.08 8.35-28.6 7.9-30.45L7.9-30.45Q7.75-31.05 7.43-31.33 7.1-31.6 6.4-31.6L6.4-31.6Q5.55-31.6 4.1-31.15L4.1-31.15Q3.2-30.95 3.1-30.95L3.1-30.95Q2.65-30.95 2.43-31.5 2.2-32.05 2.2-32.6L2.2-32.6Q2.2-33.2 2.55-33.25L2.55-33.25Q4.7-33.7 6.75-34.2L6.75-34.2Q13.3-35.65 13.45-35.65L13.45-35.65Q13.8-35.65 13.9-35.38 14-35.1 13.9-34.8L13.9-34.8Q13.85-34.6 13.6-34.13 13.35-33.65 13.15-32.5 12.95-31.35 12.85-29.4L12.85-29.4Q12.7-26.7 12.5-19.07 12.3-11.45 12.25-4.95L12.25-4.95Q16.05-12.65 24.05-29.25L24.05-29.25Q24.35-29.95 24.65-30.53 24.95-31.1 25.15-31.55L25.15-31.55Q25.4-31.85 26.75-32.23 28.1-32.6 29-32.6L29-32.6Q29.5-27.2 30.18-22 30.85-16.8 31-15.6L31-15.6Q31.9-9.3 32.3-5.3L32.3-5.3Q37.3-19.85 41.9-29.18 46.5-38.5 50.45-38.5L50.45-38.5ZM80.45-35.1Q80.75-35.1 81.02-34.88 81.3-34.65 81.45-34.35L81.45-34.35Q79.95-30.55 79.85-29.65L79.85-29.65 79.35-29.55Q79.15-30.35 78.85-30.78 78.55-31.2 77.75-31.3L77.75-31.3Q68.3-32.55 64.35-32.55L64.35-32.55Q63.25-32.55 62.95-32.4 62.65-32.25 62.4-31.7L62.4-31.7Q61.55-29.6 59.35-20.25L59.35-20.25 64.55-20.25Q69.85-20.25 72.15-20.43 74.45-20.6 76.25-21.15L76.25-21.15 76.5-20.9Q76.1-19.8 76-19.13 75.9-18.45 75.8-18.1L75.8-18.1Q75.65-17.5 75.42-17.35 75.2-17.2 74.65-17.2L74.65-17.2Q70.55-17.2 58.75-17.4L58.75-17.4Q56.75-8.05 56.75-5.3L56.75-5.3Q56.75-3.45 57.87-2.88 59-2.3 61.95-2.3L61.95-2.3Q66.7-2.3 71.32-3.33 75.95-4.35 78.65-6.9L78.65-6.9Q79-6.8 79-6.65L79-6.65Q78.7-6.15 78.57-5.8 78.45-5.45 78.3-4.6L78.3-4.6Q77.95-2.75 77.45-1.88 76.95-1 75.7-0.75L75.7-0.75Q71.85 0 68.77 0.33 65.7 0.65 62.05 0.65L62.05 0.65Q58.35 0.65 56.22 0.23 54.1-0.2 53.07-1.35 52.05-2.5 52.05-4.75L52.05-4.75Q52.05-8.05 54.3-17.45L54.3-17.45 53.6-17.45Q52.95-17.45 53.05-17.85L53.05-17.85Q53.1-18.3 53.7-19.28 54.3-20.25 54.7-20.25L54.7-20.25 54.95-20.25Q56.1-25.1 56.62-27.65 57.15-30.2 57.15-31.4L57.15-31.4Q57.15-32.1 56.85-32.27 56.55-32.45 55.55-32.45L55.55-32.45Q53-32.45 50.4-31.65L50.4-31.65 50.25-31.7Q50.3-32.4 50.57-33.7 50.85-35 51.1-35.4L51.1-35.4Q55.8-35.05 60.6-35.05L60.6-35.05 80.45-35.1ZM107.09-18.6Q110.5-18.05 112.87-16.07 115.25-14.1 115.25-10.4L115.25-10.4Q115.25-7.05 113.25-4.5 111.25-1.95 107.8-0.55 104.34 0.85 100.19 0.85L100.19 0.85Q97.84 0.85 95.72 0.4 93.59-0.05 92.05-0.75L92.05-0.75Q91.44 0.15 89.55 0.15L89.55 0.15Q88.75 0.15 87.82 0.05 86.89-0.05 86.39-0.25L86.39-0.25Q87.05-1.2 87.3-1.95 87.55-2.7 87.94-4.3L87.94-4.3Q89.44-10.55 91.52-20.48 93.59-30.4 93.59-31.95L93.59-31.95Q93.59-32.45 93.34-32.6 93.09-32.75 92.44-32.75L92.44-32.75Q91.14-32.75 88.84-32.4L88.84-32.4Q86.25-32.1 85.59-32.1L85.59-32.1Q84.84-32.1 84.5-32.3 84.14-32.5 84.14-33.05L84.14-33.05Q84.14-33.5 84.39-34.4 84.64-35.3 84.89-35.7L84.89-35.7Q85-35.65 85.37-35.43 85.75-35.2 86.52-35.1 87.3-35 88.59-35L88.59-35 100.14-35Q107.14-35 111.34-32.8 115.55-30.6 115.55-26.4L115.55-26.4Q115.55-20.6 107.09-18.6L107.09-18.6ZM100-1.8Q105-1.8 107.55-4.17 110.09-6.55 110.09-10.65L110.09-10.65Q110.09-13.8 108.5-15.3 106.89-16.8 103.39-16.8L103.39-16.8Q101.09-16.8 99.5-16.6L99.5-16.6Q99.09-17 98.8-17.65 98.5-18.3 98.5-19L98.5-19Q98.5-19.65 98.8-19.8L98.8-19.8Q99.19-19.75 100.37-19.68 101.55-19.6 102.25-19.6L102.25-19.6Q104.5-19.6 106.34-20.55 108.19-21.5 109.3-23.2 110.39-24.9 110.39-27.05L110.39-27.05Q110.39-29.95 108.3-31.38 106.19-32.8 102.19-32.8L102.19-32.8Q100.44-32.8 99.57-32.43 98.69-32.05 98.22-31 97.75-29.95 97.3-27.7L97.3-27.7Q93.84-10.4 92.8-3.9L92.8-3.9Q95.69-1.8 100-1.8L100-1.8ZM148.59 0.65Q146.64 0.65 142.84 0.25L142.84 0.25Q139.94-0.05 138.34-0.15L138.34-0.15Q137.69-0.2 137.37-0.33 137.04-0.45 136.29-0.9L136.29-0.9Q136.79-1.6 137.02-2.02 137.24-2.45 137.44-3.2L137.44-3.2Q137.99-5.35 140.34-18.03 142.69-30.7 142.69-31.65L142.69-31.65Q142.69-31.9 142.52-32.08 142.34-32.25 141.99-32.25L141.99-32.25Q141.74-32.25 139.54-31.85L139.54-31.85Q136.09-31.2 134.94-31.2L134.94-31.2Q133.14-31.2 133.14-32.5L133.14-32.5Q133.14-33.05 133.42-33.88 133.69-34.7 133.94-35.15L133.94-35.15Q134.64-34.9 135.42-34.8 136.19-34.7 137.84-34.7L137.84-34.7Q141.14-34.7 145.94-35.05L145.94-35.05Q151.04-35.35 152.99-35.35L152.99-35.35Q161.74-35.35 166.17-31.68 170.59-28 170.59-20.8L170.59-20.8Q170.59-15.5 168.24-10.58 165.89-5.65 160.94-2.5 155.99 0.65 148.59 0.65L148.59 0.65ZM149.64-2Q154.54-2 158.17-4.67 161.79-7.35 163.72-11.73 165.64-16.1 165.64-21.1L165.64-21.1Q165.64-27.25 162.39-30.13 159.14-33 152.04-33L152.04-33Q150.14-33 149.29-32.8 148.44-32.6 148.17-32.2 147.89-31.8 147.69-30.95L147.69-30.95Q146.79-26.5 143.14-7.5L143.14-7.5Q143.04-7.1 142.81-5.95 142.59-4.8 142.59-4.25L142.59-4.25Q142.59-3.85 142.79-3.63 142.99-3.4 143.49-3.15L143.49-3.15Q144.59-2.65 146.27-2.33 147.94-2 149.64-2L149.64-2ZM206.94-35.1Q207.24-35.1 207.51-34.88 207.79-34.65 207.94-34.35L207.94-34.35Q206.44-30.55 206.34-29.65L206.34-29.65 205.84-29.55Q205.64-30.35 205.34-30.78 205.04-31.2 204.24-31.3L204.24-31.3Q194.79-32.55 190.84-32.55L190.84-32.55Q189.74-32.55 189.44-32.4 189.14-32.25 188.89-31.7L188.89-31.7Q188.04-29.6 185.84-20.25L185.84-20.25 191.04-20.25Q196.34-20.25 198.64-20.43 200.94-20.6 202.74-21.15L202.74-21.15 202.99-20.9Q202.59-19.8 202.49-19.13 202.39-18.45 202.29-18.1L202.29-18.1Q202.14-17.5 201.91-17.35 201.69-17.2 201.14-17.2L201.14-17.2Q197.04-17.2 185.24-17.4L185.24-17.4Q183.24-8.05 183.24-5.3L183.24-5.3Q183.24-3.45 184.36-2.88 185.49-2.3 188.44-2.3L188.44-2.3Q193.19-2.3 197.81-3.33 202.44-4.35 205.14-6.9L205.14-6.9Q205.49-6.8 205.49-6.65L205.49-6.65Q205.19-6.15 205.06-5.8 204.94-5.45 204.79-4.6L204.79-4.6Q204.44-2.75 203.94-1.88 203.44-1 202.19-0.75L202.19-0.75Q198.34 0 195.26 0.33 192.19 0.65 188.54 0.65L188.54 0.65Q184.84 0.65 182.71 0.23 180.59-0.2 179.56-1.35 178.54-2.5 178.54-4.75L178.54-4.75Q178.54-8.05 180.79-17.45L180.79-17.45 180.09-17.45Q179.44-17.45 179.54-17.85L179.54-17.85Q179.59-18.3 180.19-19.28 180.79-20.25 181.19-20.25L181.19-20.25 181.44-20.25Q182.59-25.1 183.11-27.65 183.64-30.2 183.64-31.4L183.64-31.4Q183.64-32.1 183.34-32.27 183.04-32.45 182.04-32.45L182.04-32.45Q179.49-32.45 176.89-31.65L176.89-31.65 176.74-31.7Q176.79-32.4 177.06-33.7 177.34-35 177.59-35.4L177.59-35.4Q182.29-35.05 187.09-35.05L187.09-35.05 206.94-35.1ZM246.84-41.45Q249.09-41.45 249.09-39.35L249.09-39.35Q249.09-38.15 248.59-37.02 248.09-35.9 246.74-33.75L246.74-33.75Q245.64-31.95 240.54-24.2L240.54-24.2Q235.14-16.05 231.99-10.83 228.84-5.6 226.94-0.75L226.94-0.75Q226.69-0.05 226.51 0.1 226.34 0.25 225.84 0.3L225.84 0.3Q222.44 0.5 221.94 1L221.94 1Q221.64 0.85 221.44 0.65L221.44 0.65Q221.99-1.15 221.99-6.35L221.99-6.35Q221.99-10.8 221.64-16.4 221.28-22 220.94-24.95L220.94-24.95Q220.44-28.9 219.06-30.48 217.69-32.05 214.89-32.05L214.89-32.05Q212.89-32.05 211.44-31.33 209.99-30.6 208.28-28.9L208.28-28.9Q207.94-29.25 207.94-30.2L207.94-30.2Q207.94-30.65 207.99-30.85L207.99-30.85Q208.24-32.05 209.46-33.1 210.69-34.15 212.61-34.77 214.53-35.4 216.78-35.4L216.78-35.4Q221.03-35.4 222.89-32.98 224.74-30.55 225.19-25.15L225.19-25.15Q225.59-20.3 225.69-4.55L225.69-4.55Q226.59-6.15 228.99-10.25L228.99-10.25Q235.64-21.95 239.24-28.7 242.84-35.45 243.24-38.3L243.24-38.3Q243.29-38.5 243.29-38.85L243.29-38.85Q243.29-39.65 242.74-40.55L242.74-40.55Q242.99-40.6 243.94-40.9L243.94-40.9Q245.79-41.45 246.84-41.45L246.84-41.45ZM275.98-35.1Q276.28-35.1 276.56-34.88 276.83-34.65 276.98-34.35L276.98-34.35Q275.48-30.55 275.38-29.65L275.38-29.65 274.88-29.55Q274.68-30.35 274.38-30.78 274.08-31.2 273.28-31.3L273.28-31.3Q263.83-32.55 259.88-32.55L259.88-32.55Q258.78-32.55 258.48-32.4 258.18-32.25 257.93-31.7L257.93-31.7Q257.08-29.6 254.88-20.25L254.88-20.25 260.08-20.25Q265.38-20.25 267.68-20.43 269.98-20.6 271.78-21.15L271.78-21.15 272.03-20.9Q271.63-19.8 271.53-19.13 271.43-18.45 271.33-18.1L271.33-18.1Q271.18-17.5 270.96-17.35 270.73-17.2 270.18-17.2L270.18-17.2Q266.08-17.2 254.28-17.4L254.28-17.4Q252.28-8.05 252.28-5.3L252.28-5.3Q252.28-3.45 253.41-2.88 254.53-2.3 257.48-2.3L257.48-2.3Q262.23-2.3 266.86-3.33 271.48-4.35 274.18-6.9L274.18-6.9Q274.53-6.8 274.53-6.65L274.53-6.65Q274.23-6.15 274.11-5.8 273.98-5.45 273.83-4.6L273.83-4.6Q273.48-2.75 272.98-1.88 272.48-1 271.23-0.75L271.23-0.75Q267.38 0 264.31 0.33 261.23 0.65 257.58 0.65L257.58 0.65Q253.88 0.65 251.76 0.23 249.63-0.2 248.61-1.35 247.58-2.5 247.58-4.75L247.58-4.75Q247.58-8.05 249.83-17.45L249.83-17.45 249.13-17.45Q248.48-17.45 248.58-17.85L248.58-17.85Q248.63-18.3 249.23-19.28 249.83-20.25 250.23-20.25L250.23-20.25 250.48-20.25Q251.63-25.1 252.16-27.65 252.68-30.2 252.68-31.4L252.68-31.4Q252.68-32.1 252.38-32.27 252.08-32.45 251.08-32.45L251.08-32.45Q248.53-32.45 245.93-31.65L245.93-31.65 245.78-31.7Q245.83-32.4 246.11-33.7 246.38-35 246.63-35.4L246.63-35.4Q251.33-35.05 256.13-35.05L256.13-35.05 275.98-35.1ZM306.68-3.3Q307.18-0.9 307.18 2L307.18 2 306.18 1.75Q306.13 0.85 305.93 0.53 305.73 0.2 304.98 0L304.98 0Q302.03-0.9 294.48-0.9L294.48-0.9Q289.23-0.9 284.96-0.5 280.68-0.1 278.03 0.65L278.03 0.65Q276.93-1.45 276.93-2.2L276.93-2.2Q276.93-2.8 277.73-2.9L277.73-2.9Q280.63-3.4 282.48-5.43 284.33-7.45 285.46-10.85 286.58-14.25 287.53-19.55L287.53-19.55Q287.98-21.95 288.48-25.28 288.98-28.6 289.23-30.05L289.23-30.05Q289.13-29.25 289.73-33.45L289.73-33.45Q289.83-34.25 290.73-34.65L290.73-34.65Q291.83-35.15 295.23-35.52 298.63-35.9 300.98-35.9L300.98-35.9Q301.23-35.85 301.38-35.15 301.53-34.45 301.53-33.7L301.53-33.7Q301.53-33.2 301.48-33.05L301.48-33.05Q300.63-33.2 299.58-33.27 298.53-33.35 297.73-33.35L297.73-33.35Q296.28-33.35 295.61-32.7 294.93-32.05 294.53-30.45L294.53-30.45 293.48-25.7Q291.98-18.7 291.13-15.5L291.13-15.5Q289.68-10 287.96-7.1 286.23-4.2 284.03-2.85L284.03-2.85Q287.13-3.05 290.43-3.58 293.73-4.1 294.38-4.2L294.38-4.2Q297.78-4.75 299.61-5 301.43-5.25 302.98-5.25L302.98-5.25Q304.98-5.25 305.73-4.78 306.48-4.3 306.68-3.3L306.68-3.3ZM327.98 0.75Q321.03 0.75 317.1-3.23 313.18-7.2 313.18-14.65L313.18-14.65Q313.18-20.75 315.8-25.6 318.43-30.45 323.13-33.2 327.83-35.95 333.78-35.95L333.78-35.95Q340.73-35.95 344.65-32.08 348.58-28.2 348.58-20.85L348.58-20.85Q348.58-14.85 345.98-9.9 343.38-4.95 338.68-2.1 333.98 0.75 327.98 0.75L327.98 0.75ZM328.68-2Q333.38-2 336.7-4.55 340.03-7.1 341.7-11.3 343.38-15.5 343.38-20.4L343.38-20.4Q343.38-26.95 340.53-30.15 337.68-33.35 332.78-33.35L332.78-33.35Q328.33-33.35 325.03-30.83 321.73-28.3 319.98-24.03 318.23-19.75 318.23-14.6L318.23-14.6Q318.23-8.3 320.93-5.15 323.63-2 328.68-2L328.68-2ZM354.73 0.35Q353.73 0.35 353.4 0.08 353.08-0.2 353.08-0.85L353.08-0.85Q353.08-2 353.9-6.13 354.73-10.25 356.38-17.75L356.38-17.75Q357.43-22.5 358.28-26.68 359.13-30.85 359.13-31.65L359.13-31.65Q359.13-32.05 358.28-32.05L358.28-32.05Q357.78-32.05 355.88-31.75L355.88-31.75Q353.18-31.3 351.88-31.3L351.88-31.3Q350.73-31.3 350.28-31.58 349.83-31.85 349.83-32.55L349.83-32.55Q349.83-33.2 350.1-34.18 350.38-35.15 350.68-35.6L350.68-35.6Q352.48-34.9 355.23-34.9L355.23-34.9Q357.58-34.9 361.98-35.35L361.98-35.35Q362.58-35.4 365.13-35.6 367.68-35.8 369.68-35.8L369.68-35.8Q375.58-35.8 378.5-33.7 381.43-31.6 381.43-27.05L381.43-27.05Q381.43-23.25 379.55-20.35 377.68-17.45 374.48-15.88 371.28-14.3 367.48-14.3L367.48-14.3Q364.78-14.3 363.7-15 362.63-15.7 362.63-16.65L362.63-16.65Q362.63-17.1 362.85-17.53 363.08-17.95 363.38-18.2L363.38-18.2Q363.83-17.85 364.93-17.57 366.03-17.3 367.43-17.3L367.43-17.3Q370.28-17.3 372.33-18.5 374.38-19.7 375.45-21.75 376.53-23.8 376.53-26.35L376.53-26.35Q376.53-33 369.08-33L369.08-33Q367.08-33 365.45-32.55 363.83-32.1 363.58-31.1L363.58-31.1Q362.58-26.95 360.35-15.3 358.13-3.65 358.13-1.95L358.13-1.95Q358.13-1.5 358.18-1.03 358.23-0.55 358.23-0.15L358.23-0.15Q356.23 0.35 354.73 0.35L354.73 0.35ZM415.42-35.1Q415.72-35.1 416-34.88 416.27-34.65 416.42-34.35L416.42-34.35Q414.92-30.55 414.82-29.65L414.82-29.65 414.32-29.55Q414.12-30.35 413.82-30.78 413.52-31.2 412.72-31.3L412.72-31.3Q403.27-32.55 399.32-32.55L399.32-32.55Q398.22-32.55 397.92-32.4 397.62-32.25 397.37-31.7L397.37-31.7Q396.52-29.6 394.32-20.25L394.32-20.25 399.52-20.25Q404.82-20.25 407.12-20.43 409.42-20.6 411.22-21.15L411.22-21.15 411.47-20.9Q411.07-19.8 410.97-19.13 410.87-18.45 410.77-18.1L410.77-18.1Q410.62-17.5 410.4-17.35 410.17-17.2 409.62-17.2L409.62-17.2Q405.52-17.2 393.72-17.4L393.72-17.4Q391.72-8.05 391.72-5.3L391.72-5.3Q391.72-3.45 392.85-2.88 393.97-2.3 396.92-2.3L396.92-2.3Q401.67-2.3 406.3-3.33 410.92-4.35 413.62-6.9L413.62-6.9Q413.97-6.8 413.97-6.65L413.97-6.65Q413.67-6.15 413.55-5.8 413.42-5.45 413.27-4.6L413.27-4.6Q412.92-2.75 412.42-1.88 411.92-1 410.67-0.75L410.67-0.75Q406.82 0 403.75 0.33 400.67 0.65 397.02 0.65L397.02 0.65Q393.32 0.65 391.2 0.23 389.07-0.2 388.05-1.35 387.02-2.5 387.02-4.75L387.02-4.75Q387.02-8.05 389.27-17.45L389.27-17.45 388.57-17.45Q387.92-17.45 388.02-17.85L388.02-17.85Q388.07-18.3 388.67-19.28 389.27-20.25 389.67-20.25L389.67-20.25 389.92-20.25Q391.07-25.1 391.6-27.65 392.12-30.2 392.12-31.4L392.12-31.4Q392.12-32.1 391.82-32.27 391.52-32.45 390.52-32.45L390.52-32.45Q387.97-32.45 385.37-31.65L385.37-31.65 385.22-31.7Q385.27-32.4 385.55-33.7 385.82-35 386.07-35.4L386.07-35.4Q390.77-35.05 395.57-35.05L395.57-35.05 415.42-35.1ZM486.32 5.15Q486.77 5.45 486.97 5.73 487.17 6 487.17 6.55L487.17 6.55Q487.17 8 486 9.35 484.82 10.7 482.4 11.58 479.97 12.45 476.37 12.45L476.37 12.45Q468.47 12.45 460.7 8.22 452.92 4 446.3-2.73 439.67-9.45 434.47-17.25L434.47-17.25Q434.52-17.7 434.7-17.88 434.87-18.05 435.17-18.1L435.17-18.1Q439.57-18.55 442.27-19.23 444.97-19.9 446.65-21.43 448.32-22.95 448.32-25.7L448.32-25.7Q448.32-29.65 445.22-31.55 442.12-33.45 437.22-33.45L437.22-33.45Q436.12-33.45 435.57-33.25 435.02-33.05 434.87-32.4L434.87-32.4Q432.27-22.5 430.32-11.05L430.32-11.05 428.52-0.2Q427.27-0.3 425.55 0.33 423.82 0.95 423.42 1.65L423.42 1.65Q423.32 1.65 423.1 1.53 422.87 1.4 422.77 1.35L422.77 1.35Q424.52-5.45 427.22-18.1 429.92-30.75 429.92-32.55L429.92-32.55Q429.92-33 429.7-33.13 429.47-33.25 428.87-33.25L428.87-33.25Q426.72-33.25 424.95-32.13 423.17-31 422.17-29.15 421.17-27.3 421.17-25.15L421.17-25.15Q421.17-22.05 423.17-20.15L423.17-20.15Q422.52-20.15 421.2-20.38 419.87-20.6 419.17-20.85L419.17-20.85Q417.97-21.3 417.32-22.55 416.67-23.8 416.67-25.4L416.67-25.4Q416.67-28.65 419.25-30.98 421.82-33.3 426.12-34.48 430.42-35.65 435.47-35.65L435.47-35.65Q439.87-35.65 443.92-34.73 447.97-33.8 450.6-31.83 453.22-29.85 453.22-26.85L453.22-26.85Q453.22-24.3 451.35-22.15 449.47-20 446.45-18.55 443.42-17.1 440.12-16.5L440.12-16.5Q443.12-11.05 448.95-5.3 454.77 0.45 462.2 4.33 469.62 8.2 477.07 8.2L477.07 8.2Q480.47 8.2 482.85 7.38 485.22 6.55 486.32 5.15L486.32 5.15Z" opacity="1" transform="matrix(1,0,0,1,0,0)" fill="#ffffff" class="slogan-text-1" data-fill-palette-color="quaternary" id="text-1"></path></svg></g></svg></g></svg></g></svg></g><g transform="matrix(1,0,0,1,0,14.391454815622723)"><svg viewBox="0 0 366.64704000000006 272.3120231790214" height="272.3120231790214" width="366.64704000000006"><g><svg xmlns="http://www.w3.org/2000/svg" xmlns:xlink="http://www.w3.org/1999/xlink" version="1.1" x="0" y="0" viewBox="7.5 18.435 85.001 63.131" enable-background="new 0 0 100 100" xml:space="preserve" height="272.3120231790214" width="366.64704000000006" class="icon-icon-0" data-fill-palette-color="accent" id="icon-0"><g fill="#ffffff" data-fill-palette-color="accent"><path d="M89.405 18.435H10.595c-1.706 0-3.095 1.389-3.095 3.095v56.941c0 1.706 1.389 3.095 3.095 3.095h78.811c1.707 0 3.095-1.389 3.095-3.095V77.14 32.027 21.529C92.5 19.823 91.112 18.435 89.405 18.435zM10.595 19.673h78.811c1.023 0 1.857 0.833 1.857 1.856v9.075c-0.068-0.01-0.136-0.021-0.207-0.021H8.951c-0.073 0-0.143 0.011-0.213 0.021v-9.076C8.738 20.506 9.571 19.673 10.595 19.673zM91.263 77.14c0 0.114-0.093 0.206-0.207 0.206H8.951c-0.113 0-0.206-0.092-0.206-0.206V32.027c0-0.113 0.093-0.206 0.206-0.206h82.104c0.114 0 0.207 0.093 0.207 0.206V77.14zM89.405 80.327H10.595c-0.992 0-1.798-0.784-1.848-1.764 0.067 0.01 0.135 0.021 0.204 0.021h82.104c0.068 0 0.133-0.011 0.197-0.02C91.202 79.544 90.396 80.327 89.405 80.327z" fill="#ffffff" data-fill-palette-color="accent"></path><path d="M28.178 27.787c1.45 0 2.63-1.18 2.63-2.63 0-1.451-1.18-2.631-2.63-2.631s-2.631 1.18-2.631 2.631C25.547 26.607 26.728 27.787 28.178 27.787zM28.178 23.765c0.768 0 1.393 0.624 1.393 1.393 0 0.768-0.625 1.393-1.393 1.393-0.769 0-1.393-0.625-1.393-1.393C26.785 24.389 27.409 23.765 28.178 23.765z" fill="#ffffff" data-fill-palette-color="accent"></path><path d="M21.458 27.787c1.451 0 2.631-1.18 2.631-2.63 0-1.451-1.18-2.631-2.631-2.631-1.45 0-2.63 1.18-2.63 2.631C18.828 26.607 20.008 27.787 21.458 27.787zM21.458 23.765c0.769 0 1.393 0.624 1.393 1.393 0 0.768-0.624 1.393-1.393 1.393-0.768 0-1.393-0.625-1.393-1.393C20.065 24.389 20.69 23.765 21.458 23.765z" fill="#ffffff" data-fill-palette-color="accent"></path><path d="M14.738 27.787c1.451 0 2.631-1.18 2.631-2.63 0-1.451-1.18-2.631-2.631-2.631-1.45 0-2.63 1.18-2.63 2.631C12.108 26.607 13.288 27.787 14.738 27.787zM14.738 23.765c0.769 0 1.393 0.624 1.393 1.393 0 0.768-0.624 1.393-1.393 1.393-0.768 0-1.393-0.625-1.393-1.393C13.346 24.389 13.971 23.765 14.738 23.765z" fill="#ffffff" data-fill-palette-color="accent"></path></g><path d="M26.598 65.915c-0.624 0-1.395-0.429-2.289-1.276-1.605-1.519-2.16-2.371-1.2-3.405l8.79-8.811-8.774-8.782c-0.676-0.676-0.57-1.195-0.401-1.57 0.242-0.544 0.814-1.117 1.479-1.781 0.829-0.829 1.542-1.542 2.241-1.542 0.342 0 0.679 0.172 1.033 0.526l11.769 11.755c0.311 0.254 0.521 0.659 0.564 1.134 0.048 0.537-0.134 1.152-0.452 1.533L27.53 65.514C27.243 65.787 26.941 65.915 26.598 65.915zM23.846 42.57c-0.009 0 0.027 0.068 0.154 0.194l9.211 9.221c0.241 0.242 0.241 0.633 0 0.875L24 62.093c-0.093 0.1-0.125 0.147-0.133 0.166 0.012 0.047 0.125 0.377 1.292 1.48 0.979 0.927 1.42 0.938 1.438 0.938v0.619l0.01-0.62c-0.001 0.001-0.001 0.001-0.001 0.001-0.003 0 0.02-0.012 0.061-0.05l11.777-11.767c0.061-0.077 0.151-0.357 0.131-0.589-0.013-0.145-0.063-0.246-0.162-0.328L26.601 40.148c-0.144-0.143-0.215-0.171-0.215-0.171-0.182 0.06-0.886 0.764-1.307 1.184-0.531 0.532-1.077 1.078-1.227 1.413C23.85 42.571 23.848 42.57 23.846 42.57z" fill="#ffffff" data-fill-palette-color="accent"></path><path d="M55.834 71.436H40.498c-1.594 0-1.92-1.234-1.92-3.088s0.326-3.088 1.92-3.088h15.336c1.503 0 1.787 1.085 1.787 3.088C57.621 70.396 57.346 71.436 55.834 71.436zM40.498 66.497c-0.366 0-0.683 0-0.683 1.851s0.316 1.851 0.683 1.851h15.336c0.354 0 0.55 0 0.55-1.851s-0.219-1.851-0.55-1.851H40.498z" fill="#ffffff" data-fill-palette-color="accent"></path></svg></g></svg></g></svg></g><defs></defs></svg><rect width="395.52" height="152.11522959002397" fill="none" stroke="none" visibility="hidden"></rect></g></svg></g></svg>